<?xml version="1.0" encoding="UTF-8"?>
<svg xmlns="http://www.w3.org/2000/svg" xmlns:xlink="http://www.w3.org/1999/xlink" width="32px" height="32px" viewBox="0 0 32 32" version="1.1">
<g id="surface1">
<path style=" stroke:none;fill-rule:evenodd;fill:rgb(0%,0%,0%);fill-opacity:1;" d="M 16 0 C 24.835938 0 32 7.34375 32 16.40625 C 32 23.652344 27.421875 29.796875 21.066406 31.96875 C 20.257812 32.132812 19.96875 31.621094 19.96875 31.183594 C 19.96875 30.640625 19.988281 28.875 19.988281 26.679688 C 19.988281 25.152344 19.476562 24.152344 18.902344 23.644531 C 22.464844 23.238281 26.207031 21.847656 26.207031 15.546875 C 26.207031 13.757812 25.585938 12.292969 24.558594 11.144531 C 24.726562 10.730469 25.273438 9.0625 24.402344 6.804688 C 24.402344 6.804688 23.0625 6.363281 20.007812 8.484375 C 18.730469 8.121094 17.359375 7.9375 16 7.933594 C 14.640625 7.9375 13.273438 8.121094 11.996094 8.484375 C 8.9375 6.363281 7.59375 6.804688 7.59375 6.804688 C 6.726562 9.0625 7.273438 10.730469 7.4375 11.144531 C 6.414062 12.292969 5.789062 13.757812 5.789062 15.546875 C 5.789062 21.832031 9.527344 23.242188 13.078125 23.65625 C 12.621094 24.066406 12.207031 24.789062 12.0625 25.847656 C 11.152344 26.269531 8.835938 26.992188 7.40625 24.488281 C 7.40625 24.488281 6.5625 22.910156 4.957031 22.796875 C 4.957031 22.796875 3.394531 22.773438 4.847656 23.792969 C 4.847656 23.792969 5.894531 24.296875 6.621094 26.191406 C 6.621094 26.191406 7.5625 29.121094 12.011719 28.128906 C 12.019531 29.5 12.035156 30.792969 12.035156 31.183594 C 12.035156 31.617188 11.742188 32.125 10.941406 31.972656 C 4.585938 29.804688 0 23.652344 0 16.40625 C 0 7.34375 7.164062 0 16 0 "/>
</g>
</svg>
