<?xml version="1.0" encoding="UTF-8"?>
<svg xmlns="http://www.w3.org/2000/svg" xmlns:xlink="http://www.w3.org/1999/xlink" width="32px" height="32px" viewBox="0 0 32 32" version="1.1">
<defs>
<radialGradient id="radial0" gradientUnits="userSpaceOnUse" cx="217.76" cy="3290.99" fx="217.76" fy="3290.99" r="4271.92" gradientTransform="matrix(0.00951051,0,0,0.00951051,0,0)">
<stop offset="0.09" style="stop-color:rgb(98.039216%,56.078431%,12.941176%);stop-opacity:1;"/>
<stop offset="0.78" style="stop-color:rgb(84.705882%,17.647059%,49.411765%);stop-opacity:1;"/>
</radialGradient>
<radialGradient id="radial1" gradientUnits="userSpaceOnUse" cx="2330.61" cy="3182.95" fx="2330.61" fy="3182.95" r="3759.33" gradientTransform="matrix(0.00951051,0,0,0.00951051,0,0)">
<stop offset="0.64" style="stop-color:rgb(54.901961%,22.745098%,66.666667%);stop-opacity:0;"/>
<stop offset="1" style="stop-color:rgb(54.901961%,22.745098%,66.666667%);stop-opacity:1;"/>
</radialGradient>
</defs>
<g id="surface1">
<path style=" stroke:none;fill-rule:nonzero;fill:url(#radial0);" d="M 8.113281 31.886719 C 6.210938 31.800781 5.175781 31.484375 4.488281 31.214844 C 3.578125 30.859375 2.929688 30.4375 2.246094 29.753906 C 1.5625 29.074219 1.136719 28.421875 0.785156 27.511719 C 0.515625 26.824219 0.199219 25.789062 0.113281 23.886719 C 0.0195312 21.832031 0 21.214844 0 16 C 0 10.789062 0.0195312 10.171875 0.113281 8.113281 C 0.199219 6.210938 0.519531 5.179688 0.785156 4.488281 C 1.140625 3.578125 1.5625 2.929688 2.246094 2.246094 C 2.925781 1.5625 3.578125 1.136719 4.488281 0.785156 C 5.175781 0.515625 6.210938 0.199219 8.113281 0.113281 C 10.171875 0.0195312 10.789062 0 16 0 C 21.210938 0 21.828125 0.0195312 23.886719 0.113281 C 25.789062 0.199219 26.820312 0.519531 27.511719 0.785156 C 28.421875 1.136719 29.070312 1.5625 29.753906 2.246094 C 30.4375 2.925781 30.859375 3.578125 31.214844 4.488281 C 31.484375 5.175781 31.800781 6.210938 31.886719 8.113281 C 31.980469 10.171875 32 10.789062 32 16 C 32 21.210938 31.980469 21.828125 31.886719 23.886719 C 31.800781 25.789062 31.480469 26.824219 31.214844 27.511719 C 30.859375 28.421875 30.4375 29.074219 29.753906 29.753906 C 29.074219 30.4375 28.421875 30.859375 27.511719 31.214844 C 26.824219 31.484375 25.789062 31.800781 23.886719 31.886719 C 21.828125 31.980469 21.210938 32 16 32 C 10.789062 32 10.171875 31.980469 8.113281 31.886719 "/>
<path style=" stroke:none;fill-rule:nonzero;fill:url(#radial1);" d="M 8.113281 31.886719 C 6.210938 31.800781 5.175781 31.484375 4.488281 31.214844 C 3.578125 30.859375 2.929688 30.4375 2.246094 29.753906 C 1.5625 29.074219 1.136719 28.421875 0.785156 27.511719 C 0.515625 26.824219 0.199219 25.789062 0.113281 23.886719 C 0.0195312 21.832031 0 21.214844 0 16 C 0 10.789062 0.0195312 10.171875 0.113281 8.113281 C 0.199219 6.210938 0.519531 5.179688 0.785156 4.488281 C 1.140625 3.578125 1.5625 2.929688 2.246094 2.246094 C 2.925781 1.5625 3.578125 1.136719 4.488281 0.785156 C 5.175781 0.515625 6.210938 0.199219 8.113281 0.113281 C 10.171875 0.0195312 10.789062 0 16 0 C 21.210938 0 21.828125 0.0195312 23.886719 0.113281 C 25.789062 0.199219 26.820312 0.519531 27.511719 0.785156 C 28.421875 1.136719 29.070312 1.5625 29.753906 2.246094 C 30.4375 2.925781 30.859375 3.578125 31.214844 4.488281 C 31.484375 5.175781 31.800781 6.210938 31.886719 8.113281 C 31.980469 10.171875 32 10.789062 32 16 C 32 21.210938 31.980469 21.828125 31.886719 23.886719 C 31.800781 25.789062 31.480469 26.824219 31.214844 27.511719 C 30.859375 28.421875 30.4375 29.074219 29.753906 29.753906 C 29.074219 30.4375 28.421875 30.859375 27.511719 31.214844 C 26.824219 31.484375 25.789062 31.800781 23.886719 31.886719 C 21.828125 31.980469 21.210938 32 16 32 C 10.789062 32 10.171875 31.980469 8.113281 31.886719 "/>
<path style=" stroke:none;fill-rule:nonzero;fill:rgb(100%,100%,100%);fill-opacity:1;" d="M 12.070312 16.066406 C 12.070312 13.878906 13.84375 12.105469 16.035156 12.105469 C 18.222656 12.105469 19.996094 13.878906 19.996094 16.066406 C 19.996094 18.257812 18.222656 20.03125 16.035156 20.03125 C 13.84375 20.03125 12.070312 18.257812 12.070312 16.066406 M 9.929688 16.066406 C 9.929688 19.441406 12.660156 22.171875 16.035156 22.171875 C 19.40625 22.171875 22.136719 19.441406 22.136719 16.066406 C 22.136719 12.695312 19.40625 9.964844 16.035156 9.964844 C 12.660156 9.964844 9.929688 12.695312 9.929688 16.066406 M 20.953125 9.722656 C 20.953125 10.507812 21.589844 11.148438 22.378906 11.148438 C 23.167969 11.148438 23.804688 10.511719 23.804688 9.722656 C 23.804688 8.933594 23.167969 8.296875 22.378906 8.296875 C 21.59375 8.296875 20.953125 8.933594 20.953125 9.722656 M 11.230469 25.746094 C 10.070312 25.691406 9.441406 25.5 9.023438 25.335938 C 8.46875 25.121094 8.070312 24.863281 7.65625 24.445312 C 7.238281 24.03125 6.980469 23.636719 6.765625 23.082031 C 6.601562 22.660156 6.410156 22.03125 6.355469 20.871094 C 6.300781 19.621094 6.289062 19.242188 6.289062 16.070312 C 6.289062 12.894531 6.300781 12.519531 6.355469 11.265625 C 6.410156 10.105469 6.605469 9.476562 6.765625 9.054688 C 6.980469 8.5 7.238281 8.105469 7.65625 7.6875 C 8.070312 7.273438 8.46875 7.015625 9.023438 6.800781 C 9.441406 6.636719 10.070312 6.445312 11.230469 6.390625 C 12.484375 6.332031 12.859375 6.320312 16.035156 6.320312 C 19.207031 6.320312 19.582031 6.335938 20.835938 6.390625 C 21.996094 6.445312 22.625 6.636719 23.046875 6.800781 C 23.601562 7.015625 23.996094 7.273438 24.414062 7.6875 C 24.828125 8.105469 25.085938 8.5 25.300781 9.058594 C 25.464844 9.476562 25.65625 10.105469 25.710938 11.265625 C 25.769531 12.519531 25.78125 12.894531 25.78125 16.070312 C 25.78125 19.242188 25.769531 19.617188 25.710938 20.871094 C 25.65625 22.03125 25.464844 22.660156 25.300781 23.082031 C 25.085938 23.636719 24.828125 24.03125 24.414062 24.445312 C 23.996094 24.863281 23.601562 25.121094 23.046875 25.335938 C 22.625 25.5 21.996094 25.691406 20.835938 25.746094 C 19.585938 25.804688 19.207031 25.8125 16.035156 25.8125 C 12.859375 25.8125 12.484375 25.804688 11.230469 25.746094 M 11.132812 4.253906 C 9.867188 4.308594 9 4.511719 8.246094 4.804688 C 7.464844 5.109375 6.800781 5.515625 6.140625 6.175781 C 5.480469 6.835938 5.074219 7.5 4.769531 8.28125 C 4.476562 9.035156 4.273438 9.902344 4.21875 11.167969 C 4.160156 12.433594 4.144531 12.839844 4.144531 16.066406 C 4.144531 19.296875 4.160156 19.703125 4.21875 20.96875 C 4.273438 22.234375 4.476562 23.097656 4.769531 23.855469 C 5.074219 24.636719 5.480469 25.300781 6.140625 25.960938 C 6.800781 26.621094 7.464844 27.027344 8.246094 27.332031 C 9.003906 27.625 9.867188 27.828125 11.132812 27.882812 C 12.398438 27.941406 12.804688 27.957031 16.035156 27.957031 C 19.261719 27.957031 19.667969 27.941406 20.933594 27.882812 C 22.199219 27.828125 23.0625 27.625 23.820312 27.332031 C 24.601562 27.027344 25.265625 26.621094 25.925781 25.960938 C 26.585938 25.300781 26.992188 24.636719 27.296875 23.855469 C 27.589844 23.097656 27.792969 22.234375 27.847656 20.96875 C 27.90625 19.699219 27.921875 19.296875 27.921875 16.066406 C 27.921875 12.839844 27.90625 12.433594 27.847656 11.167969 C 27.792969 9.902344 27.589844 9.035156 27.296875 8.28125 C 26.992188 7.5 26.585938 6.835938 25.925781 6.175781 C 25.265625 5.515625 24.601562 5.109375 23.820312 4.804688 C 23.0625 4.511719 22.199219 4.308594 20.933594 4.253906 C 19.667969 4.195312 19.261719 4.179688 16.035156 4.179688 C 12.808594 4.179688 12.402344 4.195312 11.132812 4.253906 "/>
</g>
</svg>
