<?xml version="1.0" encoding="UTF-8"?>
<svg xmlns="http://www.w3.org/2000/svg" xmlns:xlink="http://www.w3.org/1999/xlink" width="32px" height="32px" viewBox="0 0 32 32" version="1.1">
<g id="surface1">
<path style=" stroke:none;fill-rule:evenodd;fill:rgb(0%,49.411765%,73.333333%);fill-opacity:1;" d="M 32 30.546875 L 24.925781 30.546875 L 24.925781 20.320312 C 24.925781 17.640625 23.820312 15.816406 21.386719 15.816406 C 19.527344 15.816406 18.492188 17.046875 18.011719 18.234375 C 17.832031 18.664062 17.859375 19.257812 17.859375 19.851562 L 17.859375 30.546875 L 10.851562 30.546875 C 10.851562 30.546875 10.941406 12.429688 10.851562 10.785156 L 17.859375 10.785156 L 17.859375 13.886719 C 18.273438 12.527344 20.511719 10.59375 24.085938 10.59375 C 28.515625 10.59375 32 13.4375 32 19.558594 Z M 3.765625 8.3125 L 3.722656 8.3125 C 1.464844 8.3125 0 6.800781 0 4.886719 C 0 2.933594 1.507812 1.453125 3.808594 1.453125 C 6.109375 1.453125 7.527344 2.929688 7.570312 4.878906 C 7.570312 6.796875 6.109375 8.3125 3.765625 8.3125 Z M 0.808594 10.785156 L 7.042969 10.785156 L 7.042969 30.546875 L 0.808594 30.546875 Z M 0.808594 10.785156 "/>
</g>
</svg>
