<?xml version="1.0" encoding="UTF-8"?>
<svg xmlns="http://www.w3.org/2000/svg" xmlns:xlink="http://www.w3.org/1999/xlink" width="32px" height="32px" viewBox="0 0 32 32" version="1.1">
<g id="surface1">
<path style=" stroke:none;fill-rule:nonzero;fill:rgb(17.254902%,71.764706%,25.882353%);fill-opacity:1;" d="M 0 32 L 2.753906 23.746094 C 1.355469 21.394531 0.550781 18.65625 0.550781 15.722656 C 0.550781 7.039062 7.589844 0 16.277344 0 C 24.960938 0 32 7.039062 32 15.722656 C 32 24.410156 24.960938 31.449219 16.277344 31.449219 C 13.632812 31.449219 11.144531 30.792969 8.960938 29.640625 Z M 0 32 "/>
<path style=" stroke:none;fill-rule:nonzero;fill:rgb(100%,100%,100%);fill-opacity:1;" d="M 26.308594 20.957031 C 25.582031 19.585938 22.902344 18.015625 22.902344 18.015625 C 22.296875 17.671875 21.566406 17.632812 21.222656 18.246094 C 21.222656 18.246094 20.351562 19.292969 20.128906 19.441406 C 19.121094 20.125 18.183594 20.097656 17.238281 19.152344 L 12.847656 14.761719 C 11.902344 13.816406 11.875 12.878906 12.558594 11.871094 C 12.707031 11.648438 13.753906 10.777344 13.753906 10.777344 C 14.367188 10.433594 14.328125 9.703125 13.984375 9.097656 C 13.984375 9.097656 12.414062 6.417969 11.042969 5.691406 C 10.460938 5.382812 9.742188 5.492188 9.277344 5.957031 L 8.304688 6.929688 C 5.230469 10.003906 6.742188 13.480469 9.820312 16.554688 L 15.445312 22.179688 C 18.523438 25.257812 21.996094 26.773438 25.074219 23.695312 L 26.042969 22.726562 C 26.507812 22.257812 26.617188 21.539062 26.308594 20.957031 Z M 26.308594 20.957031 "/>
</g>
</svg>
